<?xml version="1.0" encoding="UTF-8" standalone="no"?><svg xmlns="http://www.w3.org/2000/svg" xmlns:xlink= "http://www.w3.org/1999/xlink" width="600" height="390" style="overflow: hidden;" aria-label="A chart."><defs id="_ABSTRACT_RENDERER_ID_1046"><clipPath id="_ABSTRACT_RENDERER_ID_1047"><rect x="115" y="75" width="371" height="241"></rect></clipPath></defs><rect x="0" y="0" width="600" height="390" stroke="none" stroke-width="0" fill="#ffffff"></rect><g><text text-anchor="start" x="115" y="52.05" font-family="Arial" font-size="13" font-weight="bold" stroke="none" stroke-width="0" fill="#000000">Debrid Service Comparison</text><rect x="115" y="41" width="371" height="13" stroke="none" stroke-width="0" fill-opacity="0" fill="#ffffff"></rect></g><g><rect x="499" y="75" width="88" height="190" stroke="none" stroke-width="0" fill-opacity="0" fill="#ffffff"></rect><g><rect x="499" y="75" width="88" height="13" stroke="none" stroke-width="0" fill-opacity="0" fill="#ffffff"></rect><g><text text-anchor="start" x="530" y="86.05" font-family="Arial" font-size="13" stroke="none" stroke-width="0" fill="#222222">AllDebr…</text><rect x="530" y="75" width="57" height="13" stroke="none" stroke-width="0" fill-opacity="0" fill="#ffffff"></rect></g><rect x="499" y="75" width="26" height="13" stroke="none" stroke-width="0" fill="#3366cc"></rect></g><g><rect x="499" y="96" width="88" height="13" stroke="none" stroke-width="0" fill-opacity="0" fill="#ffffff"></rect><g><text text-anchor="start" x="530" y="107.05" font-family="Arial" font-size="13" stroke="none" stroke-width="0" fill="#222222">TorBox</text></g><rect x="499" y="96" width="26" height="13" stroke="none" stroke-width="0" fill="#dc3912"></rect></g><g><rect x="499" y="117" width="88" height="13" stroke="none" stroke-width="0" fill-opacity="0" fill="#ffffff"></rect><g><text text-anchor="start" x="530" y="128.05" font-family="Arial" font-size="13" stroke="none" stroke-width="0" fill="#222222">Premiu…</text><rect x="530" y="117" width="57" height="13" stroke="none" stroke-width="0" fill-opacity="0" fill="#ffffff"></rect></g><rect x="499" y="117" width="26" height="13" stroke="none" stroke-width="0" fill="#ff9900"></rect></g><g><rect x="499" y="138" width="88" height="30" stroke="none" stroke-width="0" fill-opacity="0" fill="#ffffff"></rect><g><text text-anchor="start" x="530" y="149.05" font-family="Arial" font-size="13" stroke="none" stroke-width="0" fill="#222222">Real-</text><text text-anchor="start" x="530" y="166.05" font-family="Arial" font-size="13" stroke="none" stroke-width="0" fill="#222222">Debrid</text></g><rect x="499" y="138" width="26" height="13" stroke="none" stroke-width="0" fill="#109618"></rect></g><g><rect x="499" y="176" width="88" height="30" stroke="none" stroke-width="0" fill-opacity="0" fill="#ffffff"></rect><g><text text-anchor="start" x="530" y="187.05" font-family="Arial" font-size="13" stroke="none" stroke-width="0" fill="#222222">Debrid-</text><text text-anchor="start" x="530" y="204.05" font-family="Arial" font-size="13" stroke="none" stroke-width="0" fill="#222222">Link</text></g><rect x="499" y="176" width="26" height="13" stroke="none" stroke-width="0" fill="#990099"></rect></g><g><rect x="499" y="214" width="88" height="13" stroke="none" stroke-width="0" fill-opacity="0" fill="#ffffff"></rect><g><text text-anchor="start" x="530" y="225.05" font-family="Arial" font-size="13" stroke="none" stroke-width="0" fill="#222222">LinkSn…</text><rect x="530" y="214" width="57" height="13" stroke="none" stroke-width="0" fill-opacity="0" fill="#ffffff"></rect></g><rect x="499" y="214" width="26" height="13" stroke="none" stroke-width="0" fill="#0099c6"></rect></g><g><rect x="499" y="235" width="88" height="30" stroke="none" stroke-width="0" fill-opacity="0" fill="#ffffff"></rect><g><text text-anchor="start" x="530" y="246.05" font-family="Arial" font-size="13" stroke="none" stroke-width="0" fill="#222222">Mega-</text><text text-anchor="start" x="530" y="263.05" font-family="Arial" font-size="13" stroke="none" stroke-width="0" fill="#222222">Debrid</text></g><rect x="499" y="235" width="26" height="13" stroke="none" stroke-width="0" fill="#cccc00"></rect></g></g><g><rect x="115" y="75" width="371" height="241" stroke="none" stroke-width="0" fill-opacity="0" fill="#ffffff"></rect><g clip-path="url(https://www.rapidtables.com/tools/bar-graph.html#_ABSTRACT_RENDERER_ID_1047)"><g><rect x="115" y="315" width="371" height="1" stroke="none" stroke-width="0" fill="#cccccc"></rect><rect x="115" y="267" width="371" height="1" stroke="none" stroke-width="0" fill="#cccccc"></rect><rect x="115" y="219" width="371" height="1" stroke="none" stroke-width="0" fill="#cccccc"></rect><rect x="115" y="171" width="371" height="1" stroke="none" stroke-width="0" fill="#cccccc"></rect><rect x="115" y="123" width="371" height="1" stroke="none" stroke-width="0" fill="#cccccc"></rect><rect x="115" y="75" width="371" height="1" stroke="none" stroke-width="0" fill="#cccccc"></rect></g><g><rect x="186" y="182" width="32" height="133" stroke="none" stroke-width="0" fill="#3366cc"></rect><rect x="219" y="210" width="32" height="105" stroke="none" stroke-width="0" fill="#dc3912"></rect><rect x="252" y="256" width="32" height="59" stroke="none" stroke-width="0" fill="#ff9900"></rect><rect x="285" y="239" width="31" height="76" stroke="none" stroke-width="0" fill="#109618"></rect><rect x="317" y="230" width="32" height="85" stroke="none" stroke-width="0" fill="#990099"></rect><rect x="350" y="280" width="32" height="35" stroke="none" stroke-width="0" fill="#0099c6"></rect><rect x="383" y="88" width="32" height="227" stroke="none" stroke-width="0" fill="#cccc00"></rect></g><g><rect x="115" y="315" width="371" height="1" stroke="none" stroke-width="0" fill="#333333"></rect></g></g><g></g><g><g><text text-anchor="middle" x="300.5" y="335.05" font-family="Arial" font-size="13" stroke="none" stroke-width="0" fill="#222222">.</text></g><g><text text-anchor="end" x="102" y="320.05" font-family="Arial" font-size="13" stroke="none" stroke-width="0" fill="#444444">0</text></g><g><text text-anchor="end" x="102" y="272.05" font-family="Arial" font-size="13" stroke="none" stroke-width="0" fill="#444444">25</text></g><g><text text-anchor="end" x="102" y="224.05" font-family="Arial" font-size="13" stroke="none" stroke-width="0" fill="#444444">50</text></g><g><text text-anchor="end" x="102" y="176.05" font-family="Arial" font-size="13" stroke="none" stroke-width="0" fill="#444444">75</text></g><g><text text-anchor="end" x="102" y="128.05" font-family="Arial" font-size="13" stroke="none" stroke-width="0" fill="#444444">100</text></g><g><text text-anchor="end" x="102" y="80.05" font-family="Arial" font-size="13" stroke="none" stroke-width="0" fill="#444444">125</text></g></g></g><g><g><text text-anchor="middle" x="300.5" y="368.05" font-family="Arial" font-size="13" font-style="italic" stroke="none" stroke-width="0" fill="#222222">Debrid Providers</text><rect x="115" y="357" width="371" height="13" stroke="none" stroke-width="0" fill-opacity="0" fill="#ffffff"></rect></g><g><text text-anchor="middle" x="44.55" y="195.5" font-family="Arial" font-size="13" font-style="italic" transform="rotate(-90 44.55 195.5)" stroke="none" stroke-width="0" fill="#222222">Number of Hoster available</text><path d="M33.49999999999999,316L33.50000000000001,75L46.50000000000001,75L46.49999999999999,316Z" stroke="none" stroke-width="0" fill-opacity="0" fill="#ffffff"></path></g></g><g></g></svg>